<svg width="684" height="61" viewBox="0 0 684 61" fill="none" xmlns="http://www.w3.org/2000/svg">
<g filter="url(#filter0_d_2_2)">
<path d="M30.415 52.84C25.025 52.84 20.3467 51.72 16.38 49.48C12.4367 47.2167 9.39167 44.1133 7.245 40.17C5.09833 36.2033 4.025 31.6767 4.025 26.59C4.025 22.8333 4.64333 19.3567 5.88 16.16C7.14 12.94 8.93667 10.14 11.27 7.76C13.6033 5.38 16.38 3.525 19.6 2.195C22.8433 0.864998 26.4483 0.199999 30.415 0.199999C32.375 0.199999 34.3817 0.386665 36.435 0.759996C38.4883 1.13333 40.6 1.74 42.77 2.58L40.53 8.285C38.4767 7.655 36.68 7.22333 35.14 6.99C33.6 6.73333 32.025 6.605 30.415 6.605C27.7783 6.605 25.3983 7.10666 23.275 8.11C21.175 9.11333 19.3783 10.5133 17.885 12.31C16.415 14.0833 15.2833 16.195 14.49 18.645C13.6967 21.0717 13.3 23.72 13.3 26.59C13.3 29.2733 13.6967 31.8167 14.49 34.22C15.2833 36.6233 16.415 38.7467 17.885 40.59C19.3783 42.41 21.175 43.845 23.275 44.895C25.3983 45.945 27.7783 46.47 30.415 46.47C32.025 46.47 33.6583 46.2717 35.315 45.875C36.9717 45.455 38.6983 44.8133 40.495 43.95L42.77 49.62C40.67 50.7167 38.57 51.5217 36.47 52.035C34.3933 52.5717 32.375 52.84 30.415 52.84ZM78.1966 52.98C73.2032 52.98 68.8632 51.86 65.1766 49.62C61.4899 47.38 58.6316 44.2767 56.6016 40.31C54.5716 36.32 53.5566 31.7233 53.5566 26.52C53.5566 22.5533 54.1749 18.9483 55.4116 15.705C56.6482 12.4617 58.3749 9.67333 60.5916 7.34C62.8082 5.00667 65.4099 3.21 68.3966 1.95C71.4066 0.689997 74.6732 0.059997 78.1966 0.059997C82.4666 0.059997 86.1532 0.806664 89.2566 2.3C92.3599 3.79333 94.9149 5.81166 96.9216 8.355C98.9282 10.875 100.41 13.71 101.367 16.86C102.347 19.9867 102.837 23.2067 102.837 26.52C102.837 30.1833 102.253 33.6133 101.087 36.81C99.9199 40.0067 98.2516 42.8183 96.0816 45.245C93.9116 47.6717 91.3216 49.5733 88.3116 50.95C85.3016 52.3033 81.9299 52.98 78.1966 52.98ZM78.1966 46.61C81.0432 46.61 83.6332 45.7817 85.9666 44.125C88.2999 42.4683 90.1549 40.135 91.5316 37.125C92.9082 34.0917 93.5966 30.5567 93.5966 26.52C93.5966 22.5767 92.9432 19.1 91.6366 16.09C90.3532 13.0567 88.5566 10.7 86.2466 9.02C83.9366 7.31666 81.2532 6.465 78.1966 6.465C75.0699 6.465 72.3516 7.34 70.0416 9.09C67.7316 10.84 65.9466 13.2317 64.6866 16.265C63.4499 19.2983 62.8316 22.7167 62.8316 26.52C62.8316 29.2267 63.1816 31.7933 63.8816 34.22C64.5816 36.6233 65.5966 38.7583 66.9266 40.625C68.2566 42.4917 69.8666 43.9617 71.7566 45.035C73.6699 46.085 75.8166 46.61 78.1966 46.61ZM118.694 52V1.11H127.479V45.56H146.974L146.939 52H118.694ZM162.54 52V1.11H171.325V45.56H190.82L190.785 52H162.54ZM206.456 52V1.11H236.381V7.48H215.171V45.63H237.466V52H206.456ZM217.831 28.41C218.134 27.4533 218.554 26.4967 219.091 25.54C219.651 24.56 220.362 23.755 221.226 23.125C222.112 22.495 223.186 22.18 224.446 22.18H234.001V28.41H217.831ZM278.696 52.84C273.306 52.84 268.628 51.72 264.661 49.48C260.718 47.2167 257.673 44.1133 255.526 40.17C253.38 36.2033 252.306 31.6767 252.306 26.59C252.306 22.8333 252.925 19.3567 254.161 16.16C255.421 12.94 257.218 10.14 259.551 7.76C261.885 5.38 264.661 3.525 267.881 2.195C271.125 0.864998 274.73 0.199999 278.696 0.199999C280.656 0.199999 282.663 0.386665 284.716 0.759996C286.77 1.13333 288.881 1.74 291.051 2.58L288.811 8.285C286.758 7.655 284.961 7.22333 283.421 6.99C281.881 6.73333 280.306 6.605 278.696 6.605C276.06 6.605 273.68 7.10666 271.556 8.11C269.456 9.11333 267.66 10.5133 266.166 12.31C264.696 14.0833 263.565 16.195 262.771 18.645C261.978 21.0717 261.581 23.72 261.581 26.59C261.581 29.2733 261.978 31.8167 262.771 34.22C263.565 36.6233 264.696 38.7467 266.166 40.59C267.66 42.41 269.456 43.845 271.556 44.895C273.68 45.945 276.06 46.47 278.696 46.47C280.306 46.47 281.94 46.2717 283.596 45.875C285.253 45.455 286.98 44.8133 288.776 43.95L291.051 49.62C288.951 50.7167 286.851 51.5217 284.751 52.035C282.675 52.5717 280.656 52.84 278.696 52.84ZM313.143 52V7.48H299.248V1.11H335.753V7.48H321.823V52H313.143ZM349.409 52V1.11H357.844V52H349.409ZM401.278 52.84C395.888 52.84 391.21 51.72 387.243 49.48C383.3 47.2167 380.255 44.1133 378.108 40.17C375.962 36.2033 374.888 31.6767 374.888 26.59C374.888 22.8333 375.507 19.3567 376.743 16.16C378.003 12.94 379.8 10.14 382.133 7.76C384.467 5.38 387.243 3.525 390.463 2.195C393.707 0.864998 397.312 0.199999 401.278 0.199999C403.238 0.199999 405.245 0.386665 407.298 0.759996C409.352 1.13333 411.463 1.74 413.633 2.58L411.393 8.285C409.34 7.655 407.543 7.22333 406.003 6.99C404.463 6.73333 402.888 6.605 401.278 6.605C398.642 6.605 396.262 7.10666 394.138 8.11C392.038 9.11333 390.242 10.5133 388.748 12.31C387.278 14.0833 386.147 16.195 385.353 18.645C384.56 21.0717 384.163 23.72 384.163 26.59C384.163 29.2733 384.56 31.8167 385.353 34.22C386.147 36.6233 387.278 38.7467 388.748 40.59C390.242 42.41 392.038 43.845 394.138 44.895C396.262 45.945 398.642 46.47 401.278 46.47C402.888 46.47 404.522 46.2717 406.178 45.875C407.835 45.455 409.562 44.8133 411.358 43.95L413.633 49.62C411.533 50.7167 409.433 51.5217 407.333 52.035C405.257 52.5717 403.238 52.84 401.278 52.84Z" fill="#E7717D"/>
<path d="M484.363 52V28.48H463.678C463.982 27.5 464.402 26.52 464.938 25.54C465.498 24.56 466.21 23.755 467.073 23.125C467.937 22.4717 468.998 22.145 470.258 22.145H484.363V1.11H493.008V52H484.363ZM452.303 52V1.11H461.018V52H452.303ZM533.607 52.98C528.613 52.98 524.273 51.86 520.587 49.62C516.9 47.38 514.042 44.2767 512.012 40.31C509.982 36.32 508.967 31.7233 508.967 26.52C508.967 22.5533 509.585 18.9483 510.822 15.705C512.058 12.4617 513.785 9.67333 516.002 7.34C518.218 5.00667 520.82 3.21 523.807 1.95C526.817 0.689997 530.083 0.059997 533.607 0.059997C537.877 0.059997 541.563 0.806664 544.667 2.3C547.77 3.79333 550.325 5.81166 552.332 8.355C554.338 10.875 555.82 13.71 556.777 16.86C557.757 19.9867 558.247 23.2067 558.247 26.52C558.247 30.1833 557.663 33.6133 556.497 36.81C555.33 40.0067 553.662 42.8183 551.492 45.245C549.322 47.6717 546.732 49.5733 543.722 50.95C540.712 52.3033 537.34 52.98 533.607 52.98ZM533.607 46.61C536.453 46.61 539.043 45.7817 541.377 44.125C543.71 42.4683 545.565 40.135 546.942 37.125C548.318 34.0917 549.007 30.5567 549.007 26.52C549.007 22.5767 548.353 19.1 547.047 16.09C545.763 13.0567 543.967 10.7 541.657 9.02C539.347 7.31666 536.663 6.465 533.607 6.465C530.48 6.465 527.762 7.34 525.452 9.09C523.142 10.84 521.357 13.2317 520.097 16.265C518.86 19.2983 518.242 22.7167 518.242 26.52C518.242 29.2267 518.592 31.7933 519.292 34.22C519.992 36.6233 521.007 38.7583 522.337 40.625C523.667 42.4917 525.277 43.9617 527.167 45.035C529.08 46.085 531.227 46.61 533.607 46.61ZM573.229 52L578.444 1.11H589.539L601.649 41.01L602.139 43.39L602.664 41.01L614.704 1.11H625.869L630.944 52H622.859L619.639 12.73L619.429 9.51L618.589 12.73L606.444 51.3H597.729L585.479 12.66L584.604 9.51L584.394 12.66L581.279 52H573.229ZM648.987 52V1.11H678.912V7.48H657.702V45.63H679.997V52H648.987ZM660.362 28.41C660.665 27.4533 661.085 26.4967 661.622 25.54C662.182 24.56 662.894 23.755 663.757 23.125C664.644 22.495 665.717 22.18 666.977 22.18H676.532V28.41H660.362Z" fill="#AFD27D"/>
</g>
<defs>
<filter id="filter0_d_2_2" x="0.0250244" y="0.0599976" width="683.972" height="60.92" filterUnits="userSpaceOnUse" color-interpolation-filters="sRGB">
<feFlood flood-opacity="0" result="BackgroundImageFix"/>
<feColorMatrix in="SourceAlpha" type="matrix" values="0 0 0 0 0 0 0 0 0 0 0 0 0 0 0 0 0 0 127 0" result="hardAlpha"/>
<feOffset dy="4"/>
<feGaussianBlur stdDeviation="2"/>
<feComposite in2="hardAlpha" operator="out"/>
<feColorMatrix type="matrix" values="0 0 0 0 0 0 0 0 0 0 0 0 0 0 0 0 0 0 0.25 0"/>
<feBlend mode="normal" in2="BackgroundImageFix" result="effect1_dropShadow_2_2"/>
<feBlend mode="normal" in="SourceGraphic" in2="effect1_dropShadow_2_2" result="shape"/>
</filter>
</defs>
</svg>
